<svg xmlns="http://www.w3.org/2000/svg" viewBox="0 0 96 96">
  <rect width="96" height="96" rx="28" fill="#E2F2F1" />
  <path d="M24 72C32 78 40 82 48 82C56 82 64 78 72 72C60 66 36 66 24 72Z" fill="#2E6F70" />
  <path d="M18 46C20 32 34 24 48 24C62 24 76 32 78 46C76 60 66 70 48 70C30 70 20 60 18 46Z" fill="#3B8C6A" />
  <path d="M48 28C40 28 34 36 34 46C34 56 40 64 48 64C56 64 62 56 62 46C62 36 56 28 48 28Z" fill="#F5C7A8" />
  <circle cx="38" cy="48" r="3" fill="#1E3A3B" />
  <circle cx="58" cy="48" r="3" fill="#1E3A3B" />
  <path d="M40 57C44 60 52 60 56 57C54 62 50 65 48 65C46 65 42 62 40 57Z" fill="#D77474" />
  <circle cx="38" cy="52" r="2" fill="#F5A9A2" opacity="0.6" />
  <circle cx="58" cy="52" r="2" fill="#F5A9A2" opacity="0.6" />
  <path d="M24 38C26 32 32 30 38 32C34 36 30 38 24 38Z" fill="#5FBF86" />
  <path d="M58 30C62 26 70 26 74 30C68 32 64 32 58 30Z" fill="#5FBF86" />
  <path d="M68 40C70 34 76 32 80 34C76 38 72 40 68 40Z" fill="#5FBF86" />
</svg>
