<svg xmlns="http://www.w3.org/2000/svg" viewBox="0 0 96 96">
  <rect width="96" height="96" rx="28" fill="#F3E8FF" />
  <path d="M22 44C24 28 36 20 48 20C60 20 72 28 74 44C72 60 62 74 48 74C34 74 24 60 22 44Z" fill="#3F3A83" />
  <path d="M30 70C38 78 44 82 48 82C52 82 58 78 66 70C54 66 42 66 30 70Z" fill="#4E5DAA" />
  <path d="M48 26C40 26 34 34 34 44C34 54 40 62 48 62C56 62 62 54 62 44C62 34 56 26 48 26Z" fill="#F6C7B4" />
  <circle cx="38" cy="46" r="3" fill="#231B4A" />
  <circle cx="58" cy="46" r="3" fill="#231B4A" />
  <path d="M42 55C45 58 51 58 54 55C52 60 50 63 48 63C46 63 44 60 42 55Z" fill="#D97B85" />
  <circle cx="38" cy="50" r="2" fill="#F5A2A6" opacity="0.6" />
  <circle cx="58" cy="50" r="2" fill="#F5A2A6" opacity="0.6" />
  <g transform="translate(48 28)">
    <path d="M-18 8C-14 0 -4 -2 0 2C4 -2 14 0 18 8C12 8 6 10 0 10C-6 10 -12 8 -18 8Z" fill="#6EC1A6" />
    <circle cx="-10" cy="4" r="3" fill="#FF9FC2" />
    <circle cx="0" cy="2" r="4" fill="#FFD3E5" />
    <circle cx="10" cy="4" r="3" fill="#FF9FC2" />
  </g>
  <path d="M22 32C24 26 32 24 38 26C34 30 28 32 22 32Z" fill="#74C7AF" />
  <path d="M58 24C62 20 70 20 74 24C68 26 64 26 58 24Z" fill="#74C7AF" />
  <circle cx="70" cy="60" r="6" fill="#FFD771" opacity="0.4" />
</svg>
